<svg xmlns="http://www.w3.org/2000/svg" width="30" height="30"><rect id="backgroundrect" width="100%" height="100%" x="0" y="0" fill="none" stroke="none"/>    <g class="currentLayer" style=""><title>Layer 1</title><rect fill="#ffffff" stroke="#ffffff" stroke-dashoffset="" fill-rule="nonzero" id="svg_4" x="8" y="7.695523628327692" width="15.420890042690985" height="3.3044763716723082" style="color: rgb(0, 0, 0);" class=""/><path fill="#ffffff" fill-opacity="1" stroke="#ffffff" stroke-opacity="1" stroke-width="1" stroke-dasharray="none" stroke-linejoin="miter" stroke-linecap="butt" stroke-dashoffset="" fill-rule="nonzero" opacity="1" marker-start="" marker-mid="" marker-end="" d="M5.128366162879207,17.02040765734367 C5.128366162879207,11.732325194455811 9.583914483440097,7.448978399516633 15.084591422404163,7.448978399516633 C20.585268361368225,7.448978399516633 25.04081668192912,11.732325194455811 25.04081668192912,17.02040765734367 C25.04081668192912,22.30849012023154 20.585268361368225,26.59183691517071 15.084591422404163,26.59183691517071 C9.583914483440097,26.59183691517071 5.128366162879207,22.30849012023154 5.128366162879207,17.02040765734367 z" id="svg_3" class="selected"/><path d="M15,3C8.373,3,3,8.373,3,15c0,5.623,3.872,10.328,9.092,11.63C12.036,26.468,12,26.28,12,26.047v-2.051 c-0.487,0-1.303,0-1.508,0c-0.821,0-1.551-0.353-1.905-1.009c-0.393-0.729-0.461-1.844-1.435-2.526 c-0.289-0.227-0.069-0.486,0.264-0.451c0.615,0.174,1.125,0.596,1.605,1.222c0.478,0.627,0.703,0.769,1.596,0.769 c0.433,0,1.081-0.025,1.691-0.121c0.328-0.833,0.895-1.6,1.588-1.962c-3.996-0.411-5.903-2.399-5.903-5.098 c0-1.162,0.495-2.286,1.336-3.233C9.053,10.647,8.706,8.73,9.435,8c1.798,0,2.885,1.166,3.146,1.481C13.477,9.174,14.461,9,15.495,9 c1.036,0,2.024,0.174,2.922,0.483C18.675,9.17,19.763,8,21.565,8c0.732,0.731,0.381,2.656,0.102,3.594 c0.836,0.945,1.328,2.066,1.328,3.226c0,2.697-1.904,4.684-5.894,5.097C18.199,20.49,19,22.1,19,23.313v2.734 c0,0.104-0.023,0.179-0.035,0.268C23.641,24.676,27,20.236,27,15C27,8.373,21.627,3,15,3z" id="svg_1" class=""/><path fill="" fill-opacity="1" stroke="none" stroke-opacity="1" stroke-width="1" stroke-dasharray="none" stroke-linejoin="miter" stroke-linecap="butt" stroke-dashoffset="" fill-rule="nonzero" opacity="1" marker-start="" marker-mid="" marker-end="" id="svg_2" d="M21.857142857142858,17.204081632653057 " style="color: rgb(0, 0, 0);"/></g></svg>